<svg xmlns="http://www.w3.org/2000/svg" xml:space="preserve" style="enable-background:new 0 0 33 30" viewBox="0 0 33 30"><g transform="translate(33.727)"><linearGradient id="a" x1="-1444.178" x2="-1444.693" y1="1465.949" y2="1464.977" gradientTransform="matrix(19.0113 0 0 -29.6601 27446.406 43480.688)" gradientUnits="userSpaceOnUse"><stop offset="0" style="stop-color:#11bce2"/><stop offset="1" style="stop-color:#0569f7"/></linearGradient><path d="M-10.5 0v3h-4c-4.3.1-7.7 3.7-7.7 8v18.6h-3V10.7c.2-6 5-10.7 11-10.7h3.7zm4.3 0v29.4h-2.9V0h2.9zm-12.4 16.2h.1c.4 0 .7.4.7.8v.7c0 .4-.4.7-.8.7h-1.5c-.4 0-.7-.4-.7-.8v-.7c0-.4.4-.7.8-.7h1.4z" style="fill-rule:evenodd;clip-rule:evenodd;fill:url(#a)"/></g></svg>